<svg width="116" height="21" viewBox="0 0 116 21" fill="none" xmlns="http://www.w3.org/2000/svg">
<path fill-rule="evenodd" clip-rule="evenodd" d="M1 10.0503C1 14.5248 4.24975 18.2455 8.5 19V12.4998H6.25V10H8.5V7.99975C8.5 5.74975 9.94975 4.50025 12.0002 4.50025C12.6497 4.50025 13.3503 4.6 13.9998 4.69975V7H12.85C11.7498 7 11.5 7.54975 11.5 8.25025V10H13.9L13.5002 12.4998H11.5V19C15.7502 18.2455 19 14.5255 19 10.0503C19 5.0725 14.95 1 10 1C5.05 1 1 5.0725 1 10.0503Z" fill="#112211"/>
<path d="M51.7029 4.26137C51.0071 4.5697 50.2596 4.77803 49.4737 4.8722C50.2846 4.38703 50.8912 3.62342 51.1804 2.72387C50.4186 3.17636 49.5849 3.49486 48.7154 3.66553C48.1307 3.04125 47.3563 2.62747 46.5124 2.48843C45.6684 2.34938 44.8022 2.49286 44.0481 2.89658C43.2941 3.30029 42.6944 3.94167 42.3422 4.72112C41.99 5.50057 41.905 6.37449 42.1004 7.2072C40.5568 7.1297 39.0468 6.72849 37.6683 6.02962C36.2898 5.33075 35.0736 4.34983 34.0987 3.15053C33.7654 3.72553 33.5738 4.3922 33.5738 5.1022C33.5734 5.74136 33.7308 6.37073 34.032 6.93448C34.3332 7.49822 34.7689 7.9789 35.3004 8.33387C34.684 8.31425 34.0811 8.14769 33.5421 7.84803V7.89803C33.542 8.79448 33.8521 9.66335 34.4197 10.3572C34.9874 11.051 35.7776 11.5271 36.6562 11.7047C36.0844 11.8595 35.4849 11.8823 34.9029 11.7714C35.1508 12.5427 35.6337 13.2172 36.2841 13.7005C36.9344 14.1837 37.7195 14.4515 38.5296 14.4664C37.1544 15.5459 35.4562 16.1314 33.7079 16.1289C33.3982 16.129 33.0888 16.1109 32.7812 16.0747C34.5558 17.2157 36.6215 17.8212 38.7312 17.8189C45.8729 17.8189 49.7771 11.9039 49.7771 6.77387C49.7771 6.6072 49.7729 6.43887 49.7654 6.2722C50.5248 5.72301 51.1803 5.04295 51.7013 4.26387L51.7029 4.26137Z" fill="#112211"/>
<g clip-path="url(#clip0_5604_3193)">
<path d="M83.5829 5.56962C83.4696 5.16564 83.249 4.79991 82.9445 4.51128C82.6314 4.21379 82.2477 4.00098 81.8295 3.89295C80.2645 3.48045 73.9945 3.48045 73.9945 3.48045C71.3806 3.45071 68.7674 3.58151 66.1695 3.87212C65.7514 3.98813 65.3683 4.20569 65.0545 4.50545C64.7462 4.80212 64.5229 5.16795 64.4062 5.56878C64.1259 7.07857 63.9898 8.61157 63.9995 10.1471C63.9895 11.6813 64.1254 13.2138 64.4062 14.7255C64.5204 15.1246 64.7429 15.4888 65.052 15.783C65.3612 16.0771 65.7462 16.2896 66.1695 16.4021C67.7554 16.8138 73.9945 16.8138 73.9945 16.8138C76.6118 16.8436 79.2283 16.7128 81.8295 16.4221C82.2477 16.3141 82.6314 16.1013 82.9445 15.8038C83.2489 15.5152 83.4693 15.1494 83.582 14.7455C83.8696 13.2362 84.0094 11.7026 83.9995 10.1663C84.0212 8.62345 83.8815 7.08259 83.5829 5.56878V5.56962ZM72.0012 13.0005V7.29462L77.2179 10.148L72.0012 13.0005Z" fill="#112211"/>
</g>
<path d="M105.498 7.66546C103.937 7.66546 102.663 8.9392 102.663 10.5C102.663 12.0608 103.937 13.3345 105.498 13.3345C107.059 13.3345 108.332 12.0608 108.332 10.5C108.332 8.9392 107.059 7.66546 105.498 7.66546ZM113.999 10.5C113.999 9.32621 114.01 8.16305 113.944 6.99138C113.878 5.63046 113.568 4.42264 112.573 3.42747C111.575 2.43017 110.37 2.12184 109.009 2.05592C107.835 1.99 106.672 2.00063 105.5 2.00063C104.326 2.00063 103.163 1.99 101.991 2.05592C100.63 2.12184 99.4226 2.4323 98.4275 3.42747C97.4302 4.42477 97.1218 5.63046 97.0559 6.99138C96.99 8.16517 97.0006 9.32833 97.0006 10.5C97.0006 11.6717 96.99 12.837 97.0559 14.0086C97.1218 15.3695 97.4323 16.5774 98.4275 17.5725C99.4248 18.5698 100.63 18.8782 101.991 18.9441C103.165 19.01 104.328 18.9994 105.5 18.9994C106.674 18.9994 107.837 19.01 109.009 18.9441C110.37 18.8782 111.577 18.5677 112.573 17.5725C113.57 16.5752 113.878 15.3695 113.944 14.0086C114.012 12.837 113.999 11.6738 113.999 10.5ZM105.498 14.8613C103.084 14.8613 101.137 12.9135 101.137 10.5C101.137 8.08649 103.084 6.13868 105.498 6.13868C107.911 6.13868 109.859 8.08649 109.859 10.5C109.859 12.9135 107.911 14.8613 105.498 14.8613ZM110.038 6.97862C109.474 6.97862 109.019 6.52356 109.019 5.96006C109.019 5.39655 109.474 4.94149 110.038 4.94149C110.601 4.94149 111.056 5.39655 111.056 5.96006C111.057 6.09386 111.03 6.22639 110.979 6.35004C110.928 6.4737 110.853 6.58605 110.758 6.68067C110.664 6.77528 110.551 6.8503 110.428 6.90143C110.304 6.95256 110.172 6.97879 110.038 6.97862Z" fill="#112211"/>
<defs>
<clipPath id="clip0_5604_3193">
<rect width="20" height="20" fill="white" transform="translate(64 0.147217)"/>
</clipPath>
</defs>
</svg>
