<svg width="377" height="24" viewBox="0 0 377 24" fill="none" xmlns="http://www.w3.org/2000/svg">
<path d="M21.8055 10.0415H21V10H12V14H17.6515C16.827 16.3285 14.6115 18 12 18C8.6865 18 6 15.3135 6 12C6 8.6865 8.6865 6 12 6C13.5295 6 14.921 6.577 15.9805 7.5195L18.809 4.691C17.023 3.0265 14.634 2 12 2C6.4775 2 2 6.4775 2 12C2 17.5225 6.4775 22 12 22C17.5225 22 22 17.5225 22 12C22 11.3295 21.931 10.675 21.8055 10.0415Z" fill="#FFC107"/>
<path d="M3.15234 7.3455L6.43784 9.755C7.32684 7.554 9.47984 6 11.9993 6C13.5288 6 14.9203 6.577 15.9798 7.5195L18.8083 4.691C17.0223 3.0265 14.6333 2 11.9993 2C8.15834 2 4.82734 4.1685 3.15234 7.3455Z" fill="#FF3D00"/>
<path d="M12.0002 22.0001C14.5832 22.0001 16.9302 21.0116 18.7047 19.4041L15.6097 16.7851C14.5719 17.5743 13.3039 18.0011 12.0002 18.0001C9.39916 18.0001 7.19066 16.3416 6.35866 14.0271L3.09766 16.5396C4.75266 19.7781 8.11366 22.0001 12.0002 22.0001Z" fill="#4CAF50"/>
<path d="M21.8055 10.0415H21V10H12V14H17.6515C17.2571 15.1082 16.5467 16.0766 15.608 16.7855L15.6095 16.7845L18.7045 19.4035C18.4855 19.6025 22 17 22 12C22 11.3295 21.931 10.675 21.8055 10.0415Z" fill="#1976D2"/>
<path opacity="0.4" d="M42.032 12.024V16.596H41L40.664 15.696C40.496 15.808 40.312 15.924 40.112 16.044C39.912 16.156 39.68 16.264 39.416 16.368C39.16 16.472 38.864 16.556 38.528 16.62C38.2 16.684 37.824 16.716 37.4 16.716C37.032 16.716 36.652 16.684 36.26 16.62C35.868 16.556 35.488 16.452 35.12 16.308C34.76 16.164 34.416 15.976 34.088 15.744C33.768 15.504 33.488 15.216 33.248 14.88C33.008 14.544 32.816 14.152 32.672 13.704C32.536 13.248 32.468 12.732 32.468 12.156C32.468 11.572 32.56 11.004 32.744 10.452C32.928 9.9 33.216 9.412 33.608 8.988C34 8.556 34.504 8.212 35.12 7.956C35.736 7.692 36.48 7.56 37.352 7.56C37.856 7.56 38.36 7.612 38.864 7.716C39.368 7.812 39.832 7.976 40.256 8.208C40.68 8.44 41.044 8.744 41.348 9.12C41.66 9.488 41.868 9.948 41.972 10.5H40.232C40.184 10.388 40.108 10.248 40.004 10.08C39.908 9.912 39.76 9.752 39.56 9.6C39.368 9.44 39.112 9.304 38.792 9.192C38.472 9.08 38.06 9.024 37.556 9.024C36.868 9.024 36.304 9.128 35.864 9.336C35.432 9.536 35.088 9.792 34.832 10.104C34.584 10.408 34.412 10.74 34.316 11.1C34.22 11.452 34.172 11.78 34.172 12.084C34.172 12.604 34.252 13.06 34.412 13.452C34.58 13.836 34.808 14.16 35.096 14.424C35.384 14.68 35.724 14.876 36.116 15.012C36.516 15.14 36.948 15.204 37.412 15.204C38.26 15.204 38.924 15.056 39.404 14.76C39.884 14.464 40.228 14.008 40.436 13.392H37.376V12.024H42.032ZM46.6601 15.444C47.3321 15.444 47.8481 15.252 48.2081 14.868C48.5761 14.476 48.7601 13.936 48.7601 13.248C48.7601 12.872 48.7041 12.548 48.5921 12.276C48.4801 12.004 48.3281 11.784 48.1361 11.616C47.9441 11.44 47.7201 11.312 47.4641 11.232C47.2081 11.152 46.9401 11.112 46.6601 11.112C46.3721 11.112 46.1001 11.152 45.8441 11.232C45.5961 11.312 45.3761 11.44 45.1841 11.616C44.9921 11.784 44.8401 12.004 44.7281 12.276C44.6161 12.548 44.5601 12.872 44.5601 13.248C44.5601 13.936 44.7401 14.476 45.1001 14.868C45.4681 15.252 45.9881 15.444 46.6601 15.444ZM46.6601 16.716C46.2201 16.716 45.7841 16.656 45.3521 16.536C44.9201 16.424 44.5321 16.232 44.1881 15.96C43.8521 15.688 43.5761 15.332 43.3601 14.892C43.1521 14.452 43.0481 13.912 43.0481 13.272C43.0481 12.84 43.1161 12.42 43.2521 12.012C43.3881 11.596 43.6001 11.228 43.8881 10.908C44.1841 10.588 44.5601 10.332 45.0161 10.14C45.4721 9.94 46.0201 9.84 46.6601 9.84C47.3001 9.84 47.8481 9.94 48.3041 10.14C48.7601 10.332 49.1321 10.588 49.4201 10.908C49.7161 11.228 49.9321 11.596 50.0681 12.012C50.2041 12.42 50.2721 12.84 50.2721 13.272C50.2721 13.912 50.1641 14.452 49.9481 14.892C49.7401 15.332 49.4641 15.688 49.1201 15.96C48.7841 16.232 48.4001 16.424 47.9681 16.536C47.5361 16.656 47.1001 16.716 46.6601 16.716ZM54.6523 15.444C55.3243 15.444 55.8403 15.252 56.2003 14.868C56.5683 14.476 56.7523 13.936 56.7523 13.248C56.7523 12.872 56.6963 12.548 56.5843 12.276C56.4723 12.004 56.3203 11.784 56.1283 11.616C55.9363 11.44 55.7123 11.312 55.4563 11.232C55.2003 11.152 54.9323 11.112 54.6523 11.112C54.3643 11.112 54.0923 11.152 53.8363 11.232C53.5883 11.312 53.3683 11.44 53.1763 11.616C52.9843 11.784 52.8323 12.004 52.7203 12.276C52.6083 12.548 52.5523 12.872 52.5523 13.248C52.5523 13.936 52.7323 14.476 53.0923 14.868C53.4603 15.252 53.9803 15.444 54.6523 15.444ZM54.6523 16.716C54.2123 16.716 53.7763 16.656 53.3443 16.536C52.9123 16.424 52.5243 16.232 52.1803 15.96C51.8443 15.688 51.5683 15.332 51.3523 14.892C51.1443 14.452 51.0403 13.912 51.0403 13.272C51.0403 12.84 51.1083 12.42 51.2443 12.012C51.3803 11.596 51.5923 11.228 51.8803 10.908C52.1763 10.588 52.5523 10.332 53.0083 10.14C53.4643 9.94 54.0123 9.84 54.6523 9.84C55.2923 9.84 55.8403 9.94 56.2963 10.14C56.7523 10.332 57.1243 10.588 57.4123 10.908C57.7083 11.228 57.9243 11.596 58.0603 12.012C58.1963 12.42 58.2643 12.84 58.2643 13.272C58.2643 13.912 58.1563 14.452 57.9403 14.892C57.7323 15.332 57.4563 15.688 57.1123 15.96C56.7763 16.232 56.3923 16.424 55.9603 16.536C55.5283 16.656 55.0923 16.716 54.6523 16.716ZM62.4404 13.464C62.6404 13.464 62.8444 13.444 63.0524 13.404C63.2604 13.356 63.4524 13.284 63.6284 13.188C63.8044 13.084 63.9484 12.952 64.0604 12.792C64.1724 12.632 64.2284 12.432 64.2284 12.192C64.2284 11.952 64.1724 11.752 64.0604 11.592C63.9484 11.432 63.8044 11.304 63.6284 11.208C63.4604 11.112 63.2724 11.044 63.0644 11.004C62.8564 10.964 62.6524 10.944 62.4524 10.944C62.2444 10.944 62.0364 10.964 61.8284 11.004C61.6284 11.044 61.4444 11.112 61.2764 11.208C61.1164 11.304 60.9844 11.436 60.8804 11.604C60.7764 11.764 60.7244 11.964 60.7244 12.204C60.7244 12.46 60.7764 12.668 60.8804 12.828C60.9844 12.988 61.1164 13.116 61.2764 13.212C61.4444 13.308 61.6284 13.376 61.8284 13.416C62.0364 13.448 62.2404 13.464 62.4404 13.464ZM61.3604 16.584C61.2724 16.584 61.1764 16.588 61.0724 16.596C60.9764 16.612 60.8844 16.636 60.7964 16.668C60.7164 16.708 60.6484 16.756 60.5924 16.812C60.5364 16.876 60.5084 16.956 60.5084 17.052C60.5084 17.316 60.6724 17.48 61.0004 17.544C61.3284 17.608 61.7884 17.64 62.3804 17.64C62.6684 17.64 62.9564 17.628 63.2444 17.604C63.5324 17.588 63.7884 17.556 64.0124 17.508C64.2444 17.46 64.4324 17.392 64.5764 17.304C64.7204 17.224 64.7924 17.12 64.7924 16.992C64.7924 16.88 64.7684 16.796 64.7204 16.74C64.6804 16.684 64.5924 16.644 64.4564 16.62C64.3204 16.596 64.1244 16.584 63.8684 16.584C63.6204 16.584 63.2924 16.584 62.8844 16.584H61.3604ZM66.4124 11.1C66.3484 11.084 66.2644 11.06 66.1604 11.028C66.0564 10.996 65.9604 10.988 65.8724 11.004C65.7844 11.004 65.6924 11.02 65.5964 11.052C65.5084 11.076 65.4404 11.1 65.3924 11.124C65.4404 11.188 65.5004 11.312 65.5724 11.496C65.6524 11.68 65.6924 11.912 65.6924 12.192C65.6924 12.632 65.6004 13.004 65.4164 13.308C65.2404 13.604 65.0004 13.848 64.6964 14.04C64.4004 14.224 64.0524 14.36 63.6524 14.448C63.2604 14.528 62.8524 14.568 62.4284 14.568C62.1244 14.568 61.8564 14.548 61.6244 14.508C61.4004 14.468 61.2164 14.42 61.0724 14.364C60.9844 14.42 60.8924 14.492 60.7964 14.58C60.7084 14.668 60.6644 14.768 60.6644 14.88C60.6644 14.936 60.6764 14.988 60.7004 15.036C60.7324 15.084 60.7964 15.124 60.8924 15.156C60.9964 15.188 61.1404 15.212 61.3244 15.228C61.5164 15.244 61.7764 15.252 62.1044 15.252H64.1324C64.8604 15.276 65.4244 15.404 65.8244 15.636C66.2244 15.86 66.4244 16.224 66.4244 16.728C66.4244 17.112 66.2964 17.432 66.0404 17.688C65.7844 17.944 65.4564 18.144 65.0564 18.288C64.6564 18.44 64.2084 18.548 63.7124 18.612C63.2164 18.676 62.7244 18.708 62.2364 18.708C61.7884 18.708 61.3604 18.684 60.9524 18.636C60.5444 18.588 60.1844 18.508 59.8724 18.396C59.5684 18.284 59.3244 18.136 59.1404 17.952C58.9644 17.768 58.8764 17.544 58.8764 17.28C58.8764 17.088 58.9124 16.932 58.9844 16.812C59.0644 16.7 59.1644 16.608 59.2844 16.536C59.4124 16.472 59.5524 16.424 59.7044 16.392C59.8644 16.352 60.0204 16.316 60.1724 16.284V16.26C59.8924 16.236 59.6604 16.148 59.4764 15.996C59.2924 15.836 59.2004 15.592 59.2004 15.264C59.2004 15.104 59.2324 14.956 59.2964 14.82C59.3684 14.676 59.4564 14.552 59.5604 14.448C59.6724 14.336 59.7964 14.248 59.9324 14.184C60.0684 14.112 60.2004 14.068 60.3284 14.052V14.028C59.9684 13.828 59.7004 13.572 59.5244 13.26C59.3484 12.948 59.2604 12.588 59.2604 12.18C59.2604 11.708 59.3564 11.32 59.5484 11.016C59.7484 10.712 60.0084 10.476 60.3284 10.308C60.6484 10.132 61.0044 10.012 61.3964 9.948C61.7884 9.876 62.1844 9.84 62.5844 9.84C63.1524 9.84 63.6084 9.9 63.9524 10.02C64.3044 10.14 64.5924 10.276 64.8164 10.428C64.8724 10.372 64.9444 10.304 65.0324 10.224C65.1204 10.144 65.2204 10.068 65.3324 9.996C65.4524 9.924 65.5804 9.864 65.7164 9.816C65.8604 9.76 66.0124 9.732 66.1724 9.732H66.4124V11.1ZM67.5763 7.776H69.0643V16.5H67.5763V7.776ZM77.4562 14.568C77.4322 14.704 77.3522 14.892 77.2162 15.132C77.0882 15.372 76.8922 15.608 76.6282 15.84C76.3642 16.072 76.0242 16.276 75.6082 16.452C75.2002 16.628 74.6962 16.716 74.0962 16.716C73.5202 16.716 73.0042 16.632 72.5482 16.464C72.0922 16.288 71.7042 16.048 71.3842 15.744C71.0722 15.44 70.8322 15.076 70.6642 14.652C70.4962 14.228 70.4122 13.764 70.4122 13.26C70.4122 12.804 70.4842 12.372 70.6282 11.964C70.7802 11.548 71.0042 11.184 71.3002 10.872C71.6042 10.552 71.9802 10.3 72.4282 10.116C72.8762 9.932 73.3962 9.84 73.9882 9.84C74.5962 9.848 75.1242 9.944 75.5722 10.128C76.0202 10.312 76.3922 10.572 76.6882 10.908C76.9842 11.236 77.2042 11.636 77.3482 12.108C77.5002 12.58 77.5762 13.108 77.5762 13.692H71.9242C71.9402 13.796 71.9722 13.948 72.0202 14.148C72.0762 14.34 72.1762 14.536 72.3202 14.736C72.4642 14.928 72.6722 15.104 72.9442 15.264C73.2242 15.416 73.5922 15.5 74.0482 15.516C74.5202 15.516 74.9042 15.424 75.2002 15.24C75.5042 15.048 75.7122 14.824 75.8242 14.568H77.4562ZM75.9922 12.54C75.8802 11.996 75.6442 11.612 75.2842 11.388C74.9322 11.156 74.4882 11.04 73.9522 11.04C73.7602 11.04 73.5602 11.06 73.3522 11.1C73.1522 11.14 72.9602 11.216 72.7762 11.328C72.6002 11.44 72.4402 11.592 72.2962 11.784C72.1522 11.976 72.0442 12.228 71.9722 12.54H75.9922Z" fill="#112211"/>
</svg>
