<svg width="119" height="44" viewBox="0 0 119 44" fill="none" xmlns="http://www.w3.org/2000/svg">
<g clip-path="url(#clip0_5603_3969)" filter="url(#filter0_d_5603_3969)">
<path d="M18.7282 5.57669L21.9466 8.00813L19.9805 10.5097C21.3379 12.0457 21.8382 13.7983 21.8382 15.7295C21.8382 17.9092 21.0161 20.9843 18.1195 22.3068C21.0512 23.7727 21.7649 25.8823 21.7649 28.1352C21.7649 32.9981 18.0463 36 12.935 36C7.82384 36 4 32.8898 4 28.1352H8.32413C8.32413 30.4233 10.4336 31.9242 12.935 31.9242C15.4365 31.9242 17.4026 30.5667 17.4026 28.1352C17.4026 25.7038 15.1146 24.5948 12.935 24.5948C7.4319 24.5948 4 21.2361 4 15.7295C4 10.2229 8.00229 6.79082 12.9382 6.79082C14.3339 6.79082 15.7615 6.96927 16.9788 7.79144L18.7282 5.57669ZM8.32413 15.7295C8.32413 18.8046 10.3986 20.6274 12.935 20.6274C15.4365 20.6274 17.5109 18.7696 17.5109 15.7295C17.5109 12.6894 15.4397 10.7614 12.9382 10.7614C10.3986 10.7614 8.32413 12.6543 8.32413 15.7295Z" fill="#112211"/>
<path d="M54.5673 0V24.99H50.2432V0H54.5673Z" fill="#112211"/>
<path d="M73.9987 16.1948C73.9987 21.2711 70.5317 25.382 64.8119 25.382C59.0921 25.382 55.6602 21.2711 55.6602 16.1948C55.6602 11.1534 59.1622 7.00754 64.7768 7.00754C70.3915 7.00754 73.9987 11.1534 73.9987 16.1948ZM60.0193 16.1948C60.0193 18.8748 61.6285 21.3795 64.8087 21.3795C67.9889 21.3795 69.5981 18.8779 69.5981 16.1948C69.5981 13.5498 67.7403 10.975 64.8087 10.975C61.6636 10.975 60.0193 13.5498 60.0193 16.1948Z" fill="#112211"/>
<path d="M79.4507 0V9.76082C80.4864 7.93804 83.3829 6.93742 85.2407 6.93742C90.3869 6.93742 94.214 10.0827 94.214 16.1597C94.214 21.9499 90.3168 25.382 85.1355 25.382C82.991 25.382 80.8114 24.6681 79.4507 22.5586L79.164 24.99H75.0884V0H79.4507ZM79.7343 16.1597C79.7343 19.34 82.0924 21.3444 84.8456 21.3444C87.6338 21.3444 89.8516 19.2348 89.8516 16.1597C89.8516 12.9794 87.6338 11.0132 84.8456 11.0132C82.0956 11.01 79.7343 13.0845 79.7343 16.1597Z" fill="#112211"/>
<path d="M100.699 19.2317C101.712 21.1819 104.032 22.0136 106.922 20.962C108.432 20.4107 110.207 19.1201 110.794 17.804L114.356 19.4356C113.27 21.8862 110.733 23.7982 108.213 24.7159C102.502 26.7937 97.8244 24.5024 95.8934 19.1934C94.058 14.1553 96.1643 9.27963 101.54 7.32301C107.081 5.30584 111.791 7.47278 113.633 14.5249L100.699 19.2317ZM108.467 12.5619C107.416 10.5097 105.345 10.0476 102.993 10.9017C100.775 11.7079 99.354 13.4446 99.5324 15.8123L108.467 12.5619Z" fill="#112211"/>
<path fill-rule="evenodd" clip-rule="evenodd" d="M43.7626 11.9898C42.3489 9.04026 39.4017 7.00754 35.4702 7.00754C29.8555 7.00754 26.3535 11.1534 26.3535 16.1948C26.3535 19.4132 27.733 22.2436 30.2006 23.8843C30.3412 23.7791 30.4258 23.7108 30.4258 23.7108C31.6566 22.9077 32.8573 22.0624 34.0258 21.1765C31.8244 20.5287 30.7127 18.4223 30.7127 16.1948C30.7127 13.5498 32.3601 10.975 35.5021 10.975C38.269 10.975 40.0793 13.2686 40.274 15.7501C41.4868 14.5464 42.6507 13.292 43.7626 11.9898ZM35.0601 25.3736C38.5418 22.9057 41.7611 20.0866 44.6652 16.963C44.3328 21.6795 40.9335 25.382 35.5052 25.382C35.3553 25.382 35.2069 25.3791 35.0601 25.3736Z" fill="#8DD3BB"/>
<path d="M47.3179 4.53785C42.8631 2.89989 39.6607 6.42437 39.6607 6.42437L42.6974 8.18979C43.835 7.53652 44.3417 8.17067 44.4723 8.51802C44.5648 8.76339 44.4405 9.03108 44.3417 9.17766L43.6024 10.1114C39.6129 14.9233 34.9223 19.1042 29.6868 22.5203C29.6868 22.5203 28.1063 23.795 27.265 23.8141C26.5576 23.8301 26.2422 23.2341 26.838 22.3801L25.3722 19.0723C25.3722 19.0723 21.558 21.5707 22.2972 25.9619C22.6095 27.8166 24.3525 29.1359 26.2039 28.8013C27.1503 28.6324 28.3198 28.1703 29.7505 27.2239L32.3826 25.5031C37.6181 22.0806 42.3119 17.8869 46.2982 13.0686L47.2032 11.9756C48.567 10.4237 49.1789 9.1458 49.386 8.13562C49.7046 6.59007 48.7901 5.07959 47.3179 4.53785Z" fill="#8DD3BB"/>
</g>
<defs>
<filter id="filter0_d_5603_3969" x="0" y="0" width="118.353" height="44" filterUnits="userSpaceOnUse" color-interpolation-filters="sRGB">
<feFlood flood-opacity="0" result="BackgroundImageFix"/>
<feColorMatrix in="SourceAlpha" type="matrix" values="0 0 0 0 0 0 0 0 0 0 0 0 0 0 0 0 0 0 127 0" result="hardAlpha"/>
<feOffset dy="4"/>
<feGaussianBlur stdDeviation="2"/>
<feComposite in2="hardAlpha" operator="out"/>
<feColorMatrix type="matrix" values="0 0 0 0 0 0 0 0 0 0 0 0 0 0 0 0 0 0 0.25 0"/>
<feBlend mode="normal" in2="BackgroundImageFix" result="effect1_dropShadow_5603_3969"/>
<feBlend mode="normal" in="SourceGraphic" in2="effect1_dropShadow_5603_3969" result="shape"/>
</filter>
<clipPath id="clip0_5603_3969">
<rect width="110.353" height="36" fill="white" transform="translate(4)"/>
</clipPath>
</defs>
</svg>
