<svg width="45" height="44" viewBox="0 0 45 44" fill="none" xmlns="http://www.w3.org/2000/svg">
<rect x="0.5" width="44" height="44" rx="22" fill="#FF8682"/>
<path d="M27.3103 16.06L14.5542 28.8475L13.7812 30.7187L15.6525 29.9458L28.44 17.1897L27.3103 16.06ZM29.8627 13.5081L29.31 14.0603L30.4397 15.19L30.9923 14.6373C31.1374 14.4922 31.2188 14.2955 31.2188 14.0903C31.2188 13.8852 31.1374 13.6884 30.9923 13.5433L30.9572 13.5081C30.8853 13.4362 30.8 13.3792 30.7061 13.3403C30.6122 13.3014 30.5116 13.2814 30.4099 13.2814C30.3083 13.2814 30.2076 13.3014 30.1137 13.3403C30.0198 13.3792 29.9345 13.4362 29.8627 13.5081Z" stroke="black" stroke-width="2.0625" stroke-linecap="round" stroke-linejoin="round"/>
</svg>
